<svg xmlns="http://www.w3.org/2000/svg" viewBox="0 0 256 256" fill="none">
  <defs><linearGradient id="cobre" x1="33" y1="26" x2="219" y2="233" gradientUnits="userSpaceOnUse"><stop stop-color="#AD4E00"/><stop offset=".55" stop-color="#DF7000"/><stop offset="1" stop-color="#8E3900"/></linearGradient></defs>
  <g stroke="url(#cobre)" stroke-linecap="round" stroke-linejoin="round">
    <path d="M29 112c2-41 14-66 38-66 19 0 38 17 54 38 15-31 34-61 57-61 34 0 51 41 45 84-5 38-27 62-57 62-26 0-45-20-57-41-14 22-33 40-57 40-27 0-43-21-43-56Z" stroke-width="10"/>
    <path d="M37 121c15 45 49 67 92 67 51 0 83-23 96-66M24 116c-1 59 36 108 105 108 64 0 104-47 103-108M30 143c14 50 47 81 99 81 52 0 89-31 101-81" stroke-width="9"/>
    <path d="M63 105c16-16 37-14 55 2 16 14 23 32 24 49M90 115c0-31 18-53 43-53 22 0 38 22 38 51 0 29-19 54-43 54-21 0-38-23-38-52Z" stroke-width="9"/>
    <path d="M147 154c7-8 12-18 15-29m-4 31c8-7 14-18 17-31m-5 32c9-7 15-17 18-30" stroke-width="7"/>
  </g>
</svg>
