<svg xmlns="http://www.w3.org/2000/svg" viewBox="0 0 1600 1000" fill="none"><rect width="1600" height="1000" fill="#e9d7c9"/><path d="M1130 105c-102 62-127 182-71 261 56 79 59 173-11 258-59 72-69 160-12 237 45 60 124 91 196 72 115-31 181-164 124-272-25-47-57-76-26-151 48-116 4-234-100-274-32-12-68-12-100 0Z" fill="#b8795d" opacity=".45"/><path d="M255 860c27-248 166-449 408-542M439 890c-19-271 74-490 266-631M972 890c-42-207-13-411 94-591" stroke="#a75e45" stroke-width="10" stroke-linecap="round" opacity=".38"/><path d="M393 495c-94-9-155 31-184 101 93 20 160-15 184-101ZM548 367c64-83 136-102 210-78-34 88-102 127-210 78ZM1006 513c76-63 150-64 213-17-58 75-136 81-213 17Z" fill="#fff9f4" opacity=".55"/><circle cx="756" cy="703" r="135" fill="#f8eee7" opacity=".5"/></svg>
